<?xml version="1.0" standalone="no"?><!DOCTYPE svg PUBLIC "-//W3C//DTD SVG 1.1//EN" "http://www.w3.org/Graphics/SVG/1.1/DTD/svg11.dtd"><svg width="500" height="500" xmlns="http://www.w3.org/2000/svg">
<text x="180" y="38" style="font-size: 15px; font-family: Verdana;"> Average Student Grade </text><line x1="50" y1="50" x2="50" y2="450" style="stroke:black;stroke-width:2"/><line x1="50" y1="450" x2="450" y2="450" style="stroke:black;stroke-width:2"/>
<rect x="425.8" y="50.0" width="24.2" height="400.0" style="fill:rgb(25.0,230.0,0.0);"/>
<text x="429.8" y="48.0" style="font-size: 12px;">72.9</text>
<text x="425.8" y="467" style="font-size: 10px;">Tyrell</text>
<rect x="389.4" y="104.9" width="24.2" height="345.1" style="fill:rgb(186.0,69.0,0.0);"/>
<text x="393.4" y="102.9" style="font-size: 12px;">62.9</text>
<text x="389.4" y="467" style="font-size: 10px;">Cherry</text>
<rect x="353.0" y="84.6" width="24.2" height="365.4" style="fill:rgb(117.0,138.0,0.0);"/>
<text x="357.0" y="82.6" style="font-size: 12px;">66.6</text>
<text x="353.0" y="467" style="font-size: 10px;">Juan</text>
<rect x="316.7" y="77.4" width="24.2" height="372.6" style="fill:rgb(71.0,184.0,0.0);"/>
<text x="320.7" y="75.4" style="font-size: 12px;">67.9</text>
<text x="316.7" y="467" style="font-size: 10px;">Derek</text>
<rect x="280.3" y="103.8" width="24.2" height="346.2" style="fill:rgb(163.0,92.0,0.0);"/>
<text x="284.3" y="101.8" style="font-size: 12px;">63.1</text>
<text x="280.3" y="467" style="font-size: 10px;">Eli</text>
<rect x="243.9" y="170.2" width="24.2" height="279.8" style="fill:rgb(255.0,0.0,0.0);"/>
<text x="247.9" y="168.2" style="font-size: 12px;">51.0</text>
<text x="243.9" y="467" style="font-size: 10px;">Judah</text>
<rect x="207.6" y="82.4" width="24.2" height="367.6" style="fill:rgb(94.0,161.0,0.0);"/>
<text x="211.6" y="80.4" style="font-size: 12px;">67.0</text>
<text x="207.6" y="467" style="font-size: 10px;">Andy</text>
<rect x="171.2" y="65.9" width="24.2" height="384.1" style="fill:rgb(48.0,207.0,0.0);"/>
<text x="175.2" y="63.9" style="font-size: 12px;">70.0</text>
<text x="171.2" y="467" style="font-size: 10px;">Charles</text>
<rect x="134.8" y="101.6" width="24.2" height="348.4" style="fill:rgb(140.0,115.0,0.0);"/>
<text x="138.8" y="99.6" style="font-size: 12px;">63.5</text>
<text x="134.8" y="467" style="font-size: 10px;">John</text>
<rect x="98.5" y="164.7" width="24.2" height="285.3" style="fill:rgb(232.0,23.0,0.0);"/>
<text x="102.5" y="162.7" style="font-size: 12px;">52.0</text>
<text x="98.5" y="467" style="font-size: 10px;">Betty</text>
<rect x="62.1" y="122.4" width="24.2" height="327.6" style="fill:rgb(209.0,46.0,0.0);"/>
<text x="66.1" y="120.4" style="font-size: 12px;">59.7</text>
<text x="62.1" y="467" style="font-size: 10px;">Jordan</text>
</svg>
